{
  "asset": {
    "version": "2.0",
    "generator": "THREE.GLTFExporter"
  },
  "scenes": [
    {
      "name": "Scene",
      "nodes": [
        10,
        11
      ]
    }
  ],
  "scene": 0,
  "nodes": [
    {
      "matrix": [
        1,
        0,
        0,
        0,
        0,
        1,
        0,
        0,
        0,
        0,
        1,
        0,
        -5.874910259100545,
        0,
        0,
        1
      ],
      "name": "mesh_3",
      "mesh": 0
    },
    {
      "name": "mesh_4",
      "mesh": 1
    },
    {
      "name": "mesh_5",
      "mesh": 2
    },
    {
      "matrix": [
        1,
        0,
        0,
        0,
        0,
        1,
        0,
        0,
        0,
        0,
        1,
        0,
        0,
        -6.5052130349130266e-18,
        0.10715564018350499,
        1
      ],
      "name": "mesh_6",
      "mesh": 3
    },
    {
      "matrix": [
        0.1,
        0,
        0,
        0,
        0,
        -2.2204460492503132e-17,
        0.1,
        0,
        0,
        0.1,
        2.2204460492503132e-17,
        0,
        -12,
        0.06272641993652339,
        -9,
        1
      ],
      "children": [
        0,
        1,
        2,
        3
      ]
    },
    {
      "matrix": [
        1,
        0,
        0,
        0,
        0,
        1,
        0,
        0,
        0,
        0,
        1,
        0,
        0,
        0,
        -1,
        1
      ]
    },
    {
      "matrix": [
        1,
        0,
        0,
        0,
        0,
        1,
        0,
        0,
        0,
        0,
        1,
        0,
        5,
        10,
        -2.904267367756674,
        1
      ],
      "name": "DirectionalLight",
      "extras": {
        "name": "DirectionalLight"
      },
      "children": [
        5
      ],
      "extensions": {
        "KHR_lights_punctual": {
          "light": 0
        }
      }
    },
    {
      "matrix": [
        0.16207513822076874,
        0,
        0,
        0,
        0,
        1.0592413675653372,
        0,
        0,
        0,
        0,
        0.1604498735805123,
        0,
        -1.5406617154807085,
        0.9280440838754058,
        1.4252771662508743,
        1
      ],
      "name": "airportTowerMesh",
      "extras": {
        "name": "airportTowerMesh"
      },
      "mesh": 4
    },
    {
      "matrix": [
        2.5938224918236608,
        0,
        0.14327476046724924,
        0,
        0,
        0.9499579128976678,
        0,
        0,
        -0.48550037057271095,
        0,
        8.789418156229129,
        0,
        -0.9662940654311301,
        0.4962017838506323,
        -1.9909643453212937,
        1
      ],
      "name": "AirportBuilding",
      "extras": {
        "name": "AirportBuilding"
      },
      "mesh": 5
    },
    {
      "matrix": [
        100,
        0,
        0,
        0,
        0,
        1.0028845102462802,
        0,
        0,
        0,
        0,
        100,
        0,
        0,
        -0.5,
        0,
        1
      ],
      "name": "landObject",
      "extras": {
        "name": "landObject"
      },
      "mesh": 6
    },
    {
      "matrix": [
        0.9271838545667874,
        0,
        -0.374606593415912,
        0,
        0,
        1,
        0,
        0,
        0.374606593415912,
        0,
        0.9271838545667874,
        0,
        -11.8,
        0,
        9.5,
        1
      ],
      "name": "airport.gltf",
      "children": [
        4,
        6,
        7,
        8,
        9
      ]
    },
    {
      "matrix": [
        1,
        0,
        0,
        0,
        0,
        1,
        0,
        0,
        0,
        0,
        1,
        0,
        5,
        10,
        7.5,
        1
      ],
      "name": "DirectionalLight",
      "extensions": {
        "KHR_lights_punctual": {
          "light": 1
        }
      }
    }
  ],
  "bufferViews": [
    {
      "buffer": 0,
      "byteOffset": 0,
      "byteLength": 48,
      "target": 34962,
      "byteStride": 12
    },
    {
      "buffer": 0,
      "byteOffset": 48,
      "byteLength": 48,
      "target": 34962,
      "byteStride": 12
    },
    {
      "buffer": 0,
      "byteOffset": 96,
      "byteLength": 32,
      "target": 34962,
      "byteStride": 8
    },
    {
      "buffer": 0,
      "byteOffset": 128,
      "byteLength": 12,
      "target": 34963
    },
    {
      "buffer": 0,
      "byteOffset": 140,
      "byteLength": 5148,
      "target": 34962,
      "byteStride": 12
    },
    {
      "buffer": 0,
      "byteOffset": 5288,
      "byteLength": 5148,
      "target": 34962,
      "byteStride": 12
    },
    {
      "buffer": 0,
      "byteOffset": 10436,
      "byteLength": 3432,
      "target": 34962,
      "byteStride": 8
    },
    {
      "buffer": 0,
      "byteOffset": 13868,
      "byteLength": 2564,
      "target": 34963
    },
    {
      "buffer": 0,
      "byteOffset": 16432,
      "byteLength": 24,
      "target": 34962,
      "byteStride": 12
    },
    {
      "buffer": 0,
      "byteOffset": 16456,
      "byteLength": 24,
      "target": 34962,
      "byteStride": 12
    },
    {
      "buffer": 0,
      "byteOffset": 16480,
      "byteLength": 16,
      "target": 34962,
      "byteStride": 8
    },
    {
      "buffer": 0,
      "byteOffset": 16496,
      "byteLength": 48,
      "target": 34962,
      "byteStride": 12
    },
    {
      "buffer": 0,
      "byteOffset": 16544,
      "byteLength": 48,
      "target": 34962,
      "byteStride": 12
    },
    {
      "buffer": 0,
      "byteOffset": 16592,
      "byteLength": 32,
      "target": 34962,
      "byteStride": 8
    },
    {
      "buffer": 0,
      "byteOffset": 16624,
      "byteLength": 12,
      "target": 34963
    },
    {
      "buffer": 0,
      "byteOffset": 16636,
      "byteLength": 7248,
      "target": 34962,
      "byteStride": 12
    },
    {
      "buffer": 0,
      "byteOffset": 23884,
      "byteLength": 7248,
      "target": 34962,
      "byteStride": 12
    },
    {
      "buffer": 0,
      "byteOffset": 31132,
      "byteLength": 4832,
      "target": 34962,
      "byteStride": 8
    },
    {
      "buffer": 0,
      "byteOffset": 35964,
      "byteLength": 2400,
      "target": 34963
    },
    {
      "buffer": 0,
      "byteOffset": 38364,
      "byteLength": 288,
      "target": 34962,
      "byteStride": 12
    },
    {
      "buffer": 0,
      "byteOffset": 38652,
      "byteLength": 288,
      "target": 34962,
      "byteStride": 12
    },
    {
      "buffer": 0,
      "byteOffset": 38940,
      "byteLength": 192,
      "target": 34962,
      "byteStride": 8
    },
    {
      "buffer": 0,
      "byteOffset": 39132,
      "byteLength": 72,
      "target": 34963
    },
    {
      "buffer": 0,
      "byteOffset": 39204,
      "byteLength": 288,
      "target": 34962,
      "byteStride": 12
    },
    {
      "buffer": 0,
      "byteOffset": 39492,
      "byteLength": 288,
      "target": 34962,
      "byteStride": 12
    },
    {
      "buffer": 0,
      "byteOffset": 39780,
      "byteLength": 192,
      "target": 34962,
      "byteStride": 8
    },
    {
      "buffer": 0,
      "byteOffset": 39972,
      "byteLength": 72,
      "target": 34963
    }
  ],
  "buffers": [
    {
      "byteLength": 40044,
      "uri": "data:application/octet-stream;base64,"
    }
  ],
  "accessors": [
    {
      "bufferView": 0,
      "componentType": 5126,
      "count": 4,
      "max": [
        127.69818878173828,
        84.90493774414062,
        0
      ],
      "min": [
        85.34237670898438,
        40.43205261230469,
        0
      ],
      "type": "VEC3"
    },
    {
      "bufferView": 1,
      "componentType": 5126,
      "count": 4,
      "max": [
        0,
        0,
        1
      ],
      "min": [
        0,
        0,
        1
      ],
      "type": "VEC3"
    },
    {
      "bufferView": 2,
      "componentType": 5126,
      "count": 4,
      "max": [
        127.69818878173828,
        84.90493774414062
      ],
      "min": [
        85.34237670898438,
        40.43205261230469
      ],
      "type": "VEC2"
    },
    {
      "bufferView": 3,
      "componentType": 5123,
      "count": 6,
      "max": [
        3
      ],
      "min": [
        0
      ],
      "type": "SCALAR"
    },
    {
      "bufferView": 4,
      "componentType": 5126,
      "count": 429,
      "max": [
        259.4700622558594,
        458.73699951171875,
        0
      ],
      "min": [
        71.93000030517578,
        3.7319061756134033,
        0
      ],
      "type": "VEC3"
    },
    {
      "bufferView": 5,
      "componentType": 5126,
      "count": 429,
      "max": [
        0,
        0,
        1
      ],
      "min": [
        0,
        0,
        1
      ],
      "type": "VEC3"
    },
    {
      "bufferView": 6,
      "componentType": 5126,
      "count": 429,
      "max": [
        259.4700622558594,
        458.73699951171875
      ],
      "min": [
        71.93000030517578,
        3.7319061756134033
      ],
      "type": "VEC2"
    },
    {
      "bufferView": 7,
      "componentType": 5123,
      "count": 1281,
      "max": [
        428
      ],
      "min": [
        0
      ],
      "type": "SCALAR"
    },
    {
      "bufferView": 8,
      "componentType": 5126,
      "count": 2,
      "max": [
        227.27699279785156,
        299.8529968261719,
        0
      ],
      "min": [
        172.4600067138672,
        16.827999114990234,
        0
      ],
      "type": "VEC3"
    },
    {
      "bufferView": 9,
      "componentType": 5126,
      "count": 2,
      "max": [
        0,
        0,
        1
      ],
      "min": [
        0,
        0,
        1
      ],
      "type": "VEC3"
    },
    {
      "bufferView": 10,
      "componentType": 5126,
      "count": 2,
      "max": [
        227.27699279785156,
        299.8529968261719
      ],
      "min": [
        172.4600067138672,
        16.827999114990234
      ],
      "type": "VEC2"
    },
    {
      "bufferView": 11,
      "componentType": 5126,
      "count": 4,
      "max": [
        275.2886962890625,
        463.37786865234375,
        0
      ],
      "min": [
        92.27374267578125,
        29.701173782348633,
        0
      ],
      "type": "VEC3"
    },
    {
      "bufferView": 12,
      "componentType": 5126,
      "count": 4,
      "max": [
        0,
        0,
        1
      ],
      "min": [
        0,
        0,
        1
      ],
      "type": "VEC3"
    },
    {
      "bufferView": 13,
      "componentType": 5126,
      "count": 4,
      "max": [
        275.2886962890625,
        463.37786865234375
      ],
      "min": [
        92.27374267578125,
        29.701173782348633
      ],
      "type": "VEC2"
    },
    {
      "bufferView": 14,
      "componentType": 5123,
      "count": 6,
      "max": [
        3
      ],
      "min": [
        0
      ],
      "type": "SCALAR"
    },
    {
      "bufferView": 15,
      "componentType": 5126,
      "count": 604,
      "max": [
        5,
        0.5,
        5
      ],
      "min": [
        -5,
        -0.5,
        -5
      ],
      "type": "VEC3"
    },
    {
      "bufferView": 16,
      "componentType": 5126,
      "count": 604,
      "max": [
        0.24253562092781067,
        1,
        0.24253562092781067
      ],
      "min": [
        -0.24253562092781067,
        -1,
        -0.24253562092781067
      ],
      "type": "VEC3"
    },
    {
      "bufferView": 17,
      "componentType": 5126,
      "count": 604,
      "max": [
        1,
        1
      ],
      "min": [
        0,
        0
      ],
      "type": "VEC2"
    },
    {
      "bufferView": 18,
      "componentType": 5123,
      "count": 1200,
      "max": [
        603
      ],
      "min": [
        0
      ],
      "type": "SCALAR"
    },
    {
      "bufferView": 19,
      "componentType": 5126,
      "count": 24,
      "max": [
        0.5,
        0.5,
        0.5
      ],
      "min": [
        -0.5,
        -0.5,
        -0.5
      ],
      "type": "VEC3"
    },
    {
      "bufferView": 20,
      "componentType": 5126,
      "count": 24,
      "max": [
        1,
        1,
        1
      ],
      "min": [
        -1,
        -1,
        -1
      ],
      "type": "VEC3"
    },
    {
      "bufferView": 21,
      "componentType": 5126,
      "count": 24,
      "max": [
        1,
        1
      ],
      "min": [
        0,
        0
      ],
      "type": "VEC2"
    },
    {
      "bufferView": 22,
      "componentType": 5123,
      "count": 36,
      "max": [
        23
      ],
      "min": [
        0
      ],
      "type": "SCALAR"
    },
    {
      "bufferView": 23,
      "componentType": 5126,
      "count": 24,
      "max": [
        0.5,
        0.5,
        0.5
      ],
      "min": [
        -0.5,
        -0.5,
        -0.5
      ],
      "type": "VEC3"
    },
    {
      "bufferView": 24,
      "componentType": 5126,
      "count": 24,
      "max": [
        1,
        1,
        1
      ],
      "min": [
        -1,
        -1,
        -1
      ],
      "type": "VEC3"
    },
    {
      "bufferView": 25,
      "componentType": 5126,
      "count": 24,
      "max": [
        1,
        1
      ],
      "min": [
        0,
        0
      ],
      "type": "VEC2"
    },
    {
      "bufferView": 26,
      "componentType": 5123,
      "count": 36,
      "max": [
        23
      ],
      "min": [
        0
      ],
      "type": "SCALAR"
    }
  ],
  "materials": [
    {
      "pbrMetallicRoughness": {
        "baseColorFactor": [
          0.9098039215686274,
          0.9098039215686274,
          0.9098039215686274,
          1
        ],
        "metallicFactor": 0,
        "roughnessFactor": 0.9
      },
      "alphaMode": "MASK",
      "alphaCutoff": 1,
      "doubleSided": true,
      "extensions": {
        "KHR_materials_unlit": {}
      }
    },
    {
      "pbrMetallicRoughness": {
        "baseColorFactor": [
          0.7372549019607844,
          0.7450980392156863,
          0.7529411764705882,
          1
        ],
        "metallicFactor": 0,
        "roughnessFactor": 0.9
      },
      "alphaMode": "MASK",
      "alphaCutoff": 1,
      "doubleSided": true,
      "extensions": {
        "KHR_materials_unlit": {}
      }
    },
    {
      "pbrMetallicRoughness": {
        "baseColorFactor": [
          0.7372549019607844,
          0.7450980392156863,
          0.7529411764705882,
          1
        ],
        "metallicFactor": 0,
        "roughnessFactor": 0.9
      },
      "alphaMode": "MASK",
      "alphaCutoff": 1,
      "doubleSided": true,
      "extensions": {
        "KHR_materials_unlit": {}
      }
    },
    {
      "pbrMetallicRoughness": {
        "baseColorFactor": [
          0.38823529411764707,
          0.39215686274509803,
          0.4,
          1
        ],
        "metallicFactor": 0,
        "roughnessFactor": 0.9
      },
      "alphaMode": "MASK",
      "alphaCutoff": 1,
      "doubleSided": true,
      "extensions": {
        "KHR_materials_unlit": {}
      }
    },
    {
      "pbrMetallicRoughness": {
        "metallicFactor": 0,
        "roughnessFactor": 1
      },
      "name": "airportTowerMaterial"
    },
    {
      "pbrMetallicRoughness": {
        "metallicFactor": 0,
        "roughnessFactor": 1
      },
      "name": "AirportBuildingMaterial"
    },
    {
      "pbrMetallicRoughness": {
        "baseColorFactor": [
          0.1607843137254902,
          0.7098039215686275,
          0.011764705882352941,
          1
        ],
        "metallicFactor": 0,
        "roughnessFactor": 1
      },
      "name": "landMaterial"
    }
  ],
  "meshes": [
    {
      "primitives": [
        {
          "mode": 4,
          "attributes": {
            "POSITION": 0,
            "NORMAL": 1,
            "TEXCOORD_0": 2
          },
          "indices": 3,
          "material": 0
        }
      ]
    },
    {
      "primitives": [
        {
          "mode": 4,
          "attributes": {
            "POSITION": 4,
            "NORMAL": 5,
            "TEXCOORD_0": 6
          },
          "indices": 7,
          "material": 1
        }
      ]
    },
    {
      "primitives": [
        {
          "mode": 4,
          "attributes": {
            "POSITION": 8,
            "NORMAL": 9,
            "TEXCOORD_0": 10
          },
          "material": 2
        }
      ]
    },
    {
      "primitives": [
        {
          "mode": 4,
          "attributes": {
            "POSITION": 11,
            "NORMAL": 12,
            "TEXCOORD_0": 13
          },
          "indices": 14,
          "material": 3
        }
      ]
    },
    {
      "primitives": [
        {
          "mode": 4,
          "attributes": {
            "POSITION": 15,
            "NORMAL": 16,
            "TEXCOORD_0": 17
          },
          "indices": 18,
          "material": 4
        }
      ]
    },
    {
      "primitives": [
        {
          "mode": 4,
          "attributes": {
            "POSITION": 19,
            "NORMAL": 20,
            "TEXCOORD_0": 21
          },
          "indices": 22,
          "material": 5
        }
      ]
    },
    {
      "primitives": [
        {
          "mode": 4,
          "attributes": {
            "POSITION": 23,
            "NORMAL": 24,
            "TEXCOORD_0": 25
          },
          "indices": 26,
          "material": 6
        }
      ]
    }
  ],
  "extensions": {
    "KHR_lights_punctual": {
      "lights": [
        {
          "name": "DirectionalLight",
          "color": [
            1,
            1,
            1
          ],
          "intensity": 1,
          "type": "directional"
        },
        {
          "name": "DirectionalLight",
          "color": [
            1,
            1,
            1
          ],
          "intensity": 1,
          "type": "directional"
        }
      ]
    }
  },
  "extensionsUsed": [
    "KHR_materials_unlit",
    "KHR_lights_punctual"
  ]
}